<?xml version="1.0" encoding="UTF-8" standalone="no"?>
<!-- Created with Inkscape (http://www.inkscape.org/) -->

<svg
   xmlns:dc="http://purl.org/dc/elements/1.1/"
   xmlns:cc="http://creativecommons.org/ns#"
   xmlns:rdf="http://www.w3.org/1999/02/22-rdf-syntax-ns#"
   xmlns:svg="http://www.w3.org/2000/svg"
   xmlns="http://www.w3.org/2000/svg"
   xmlns:sodipodi="http://sodipodi.sourceforge.net/DTD/sodipodi-0.dtd"
   xmlns:inkscape="http://www.inkscape.org/namespaces/inkscape"
   width="60"
   height="32"
   viewBox="0 0 60 32"
   version="1.1"
   id="svg8"
   inkscape:version="0.92.4 (5da689c313, 2019-01-14)"
   sodipodi:docname="default.svg">
  <defs
     id="defs2" />
  <sodipodi:namedview
     id="base"
     pagecolor="#ffffff"
     bordercolor="#666666"
     borderopacity="1.0"
     inkscape:pageopacity="0.0"
     inkscape:pageshadow="2"
     inkscape:zoom="9.0126583"
     inkscape:cx="46.240134"
     inkscape:cy="18.592581"
     inkscape:document-units="px"
     inkscape:current-layer="svg8"
     showgrid="true"
     units="px"
     inkscape:pagecheckerboard="true"
     borderlayer="true"
     gridtolerance="10"
     inkscape:snap-smooth-nodes="true"
     inkscape:snap-text-baseline="true"
     inkscape:snap-page="true"
     showguides="true"
     inkscape:guide-bbox="true"
     fit-margin-top="0"
     fit-margin-left="0"
     fit-margin-right="0"
     fit-margin-bottom="0">
    <inkscape:grid
       type="xygrid"
       id="grid4131"
       empspacing="4"
       spacingx="8"
       spacingy="8"
       originx="0"
       originy="3.3514404e-06"
       enabled="false" />
  </sodipodi:namedview>
  <metadata
     id="metadata5">
    <rdf:RDF>
      <cc:Work
         rdf:about="">
        <dc:format>image/svg+xml</dc:format>
        <dc:type
           rdf:resource="http://purl.org/dc/dcmitype/StillImage" />
        <dc:title></dc:title>
      </cc:Work>
    </rdf:RDF>
  </metadata>
  <g
     inkscape:label="レイヤー 1"
     inkscape:groupmode="layer"
     id="layer1">
    <path
       inkscape:connector-curvature="0"
       id="path905"
       style="font-style:normal;font-variant:normal;font-weight:normal;font-stretch:normal;font-size:16px;line-height:1.39999998;font-family:'Abril Fatface';-inkscape-font-specification:'Abril Fatface';font-variant-ligatures:normal;font-variant-position:normal;font-variant-caps:normal;font-variant-numeric:normal;font-variant-alternates:normal;font-feature-settings:normal;text-indent:0;text-align:center;text-decoration:none;text-decoration-line:none;text-decoration-style:solid;text-decoration-color:#000000;letter-spacing:normal;word-spacing:normal;text-transform:none;writing-mode:lr-tb;direction:ltr;text-orientation:mixed;dominant-baseline:auto;baseline-shift:baseline;text-anchor:middle;white-space:normal;shape-padding:0;fill:#ffffff;fill-opacity:1;fill-rule:nonzero;stroke:#000000;stroke-width:1;stroke-linecap:butt;stroke-linejoin:round;stroke-miterlimit:4;stroke-dasharray:none;stroke-dashoffset:0;stroke-opacity:1;paint-order:stroke markers fill"
       d="m 2.2878747,4.68 q 0,-1.04 0.944,-1.744 0.944,-0.704 2.688,-0.704 1.76,0 2.704,0.672 0.96,0.672 0.96,1.984 0,0.864 -0.432,1.536 -0.416,0.656 -1.168,1.344 l -2.416,2.144 v 0.928 h -0.4 V 7.48 q 0,-0.272 0.176,-0.448 l 0.992,-1.008 q 0.464,-0.464 0.64,-0.864 0.176,-0.416 0.176,-1.072 0,-1.552 -1.44,-1.552 -0.688,0 -1.008,0.368 -0.32,0.368 -0.32,0.704 0,0.336 0.096,0.592 h 0.512 q 0.128,0.336 0.128,0.816 0,0.464 -0.4,0.816 -0.4,0.336 -1.056,0.336 -0.656,0 -1.024,-0.416 -0.352,-0.432 -0.352,-1.072 z m 3.04,9.088 q -0.592,0 -0.896,-0.336 -0.288,-0.352 -0.288,-0.864 0,-0.528 0.32,-0.864 0.32,-0.352 0.88,-0.352 0.56,0 0.896,0.304 0.336,0.288 0.336,0.864 0,0.576 -0.32,0.912 -0.32,0.336 -0.928,0.336 z" />
    <path
       inkscape:connector-curvature="0"
       id="path902"
       style="font-style:normal;font-variant:normal;font-weight:normal;font-stretch:normal;font-size:16px;line-height:1.39999998;font-family:'Abril Fatface';-inkscape-font-specification:'Abril Fatface';font-variant-ligatures:normal;font-variant-position:normal;font-variant-caps:normal;font-variant-numeric:normal;font-variant-alternates:normal;font-feature-settings:normal;text-indent:0;text-align:center;text-decoration:none;text-decoration-line:none;text-decoration-style:solid;text-decoration-color:#000000;letter-spacing:normal;word-spacing:normal;text-transform:none;writing-mode:lr-tb;direction:ltr;text-orientation:mixed;dominant-baseline:auto;baseline-shift:baseline;text-anchor:middle;white-space:normal;shape-padding:0;fill:#ffffff;fill-opacity:1;fill-rule:nonzero;stroke:#000000;stroke-width:1;stroke-linecap:butt;stroke-linejoin:round;stroke-miterlimit:4;stroke-dasharray:none;stroke-dashoffset:0;stroke-opacity:1;paint-order:stroke markers fill"
       d="m 16.626242,2.824 -1.76,0.224 -0.032,-0.32 3.616,-0.496 h 1.296 v 11.072 h 1.248 v 0.304 h -6.048 v -0.304 h 1.68 z" />
    <path
       inkscape:connector-curvature="0"
       id="path899"
       style="font-style:normal;font-variant:normal;font-weight:normal;font-stretch:normal;font-size:16px;line-height:1.39999998;font-family:'Abril Fatface';-inkscape-font-specification:'Abril Fatface';font-variant-ligatures:normal;font-variant-position:normal;font-variant-caps:normal;font-variant-numeric:normal;font-variant-alternates:normal;font-feature-settings:normal;text-indent:0;text-align:center;text-decoration:none;text-decoration-line:none;text-decoration-style:solid;text-decoration-color:#000000;letter-spacing:normal;word-spacing:normal;text-transform:none;writing-mode:lr-tb;direction:ltr;text-orientation:mixed;dominant-baseline:auto;baseline-shift:baseline;text-anchor:middle;white-space:normal;shape-padding:0;fill:#ffffff;fill-opacity:1;fill-rule:nonzero;stroke:#000000;stroke-width:1;stroke-linecap:butt;stroke-linejoin:round;stroke-miterlimit:4;stroke-dasharray:none;stroke-dashoffset:0;stroke-opacity:1;paint-order:stroke markers fill"
       d="m 26.138644,4.68 q 0,-1.072 0.928,-1.76 0.928,-0.688 2.784,-0.688 1.856,0 2.848,0.688 1.008,0.688 1.008,2.064 0,0.448 -0.08,0.816 -0.08,0.352 -0.368,0.752 -0.272,0.384 -0.544,0.688 -0.256,0.304 -0.896,0.8 -0.96,0.768 -2.016,1.536 -1.056,0.752 -1.232,0.88 l -0.976,0.704 h 3.84 q 1.104,0 1.568,-0.48 0.464,-0.48 0.656,-1.504 h 0.272 l -0.16,4.432 h -7.52 v -1.856 l 1.616,-1.488 q 1.648,-1.504 2.336,-2.672 0.688,-1.184 0.688,-2.592 0,-1.424 -0.304,-1.936 -0.304,-0.528 -1.024,-0.528 -0.72,0 -1.008,0.368 -0.288,0.368 -0.288,0.704 0,0.336 0.096,0.592 h 0.48 q 0.128,0.336 0.128,0.816 0,0.464 -0.4,0.816 -0.4,0.336 -1.056,0.336 -0.656,0 -1.024,-0.416 -0.352,-0.432 -0.352,-1.072 z" />
    <path
       inkscape:connector-curvature="0"
       id="path896"
       style="font-style:normal;font-variant:normal;font-weight:normal;font-stretch:normal;font-size:16px;line-height:1.39999998;font-family:'Abril Fatface';-inkscape-font-specification:'Abril Fatface';font-variant-ligatures:normal;font-variant-position:normal;font-variant-caps:normal;font-variant-numeric:normal;font-variant-alternates:normal;font-feature-settings:normal;text-indent:0;text-align:center;text-decoration:none;text-decoration-line:none;text-decoration-style:solid;text-decoration-color:#000000;letter-spacing:normal;word-spacing:normal;text-transform:none;writing-mode:lr-tb;direction:ltr;text-orientation:mixed;dominant-baseline:auto;baseline-shift:baseline;text-anchor:middle;white-space:normal;shape-padding:0;fill:#ffffff;fill-opacity:1;fill-rule:nonzero;stroke:#000000;stroke-width:1;stroke-linecap:butt;stroke-linejoin:round;stroke-miterlimit:4;stroke-dasharray:none;stroke-dashoffset:0;stroke-opacity:1;paint-order:stroke markers fill"
       d="m 38.094375,4.68 q 0,-1.056 0.96,-1.744 0.96,-0.704 2.848,-0.704 3.648,0 3.648,2.544 0,1.04 -0.864,1.728 -0.848,0.672 -2.448,0.944 V 7.48 q 1.984,0.144 2.928,0.928 0.944,0.784 0.944,2.032 0,1.536 -1.248,2.432 -1.232,0.896 -3.44,0.896 -0.864,0 -1.616,-0.192 -0.736,-0.192 -1.328,-0.752 -0.576,-0.576 -0.576,-1.36 0,-0.784 0.368,-1.216 0.384,-0.432 1.04,-0.432 0.656,0 1.04,0.352 0.384,0.336 0.384,0.816 0,0.464 -0.128,0.8 h -0.496 q -0.096,0.256 -0.096,0.528 0,1.136 1.344,1.136 0.944,0 1.28,-0.72 0.352,-0.72 0.352,-2.08 0,-1.36 -0.336,-1.968 -0.32,-0.624 -0.96,-0.944 -0.576,0.128 -1.392,0.208 l -0.048,-0.352 q 1.408,-0.144 1.84,-0.672 0.448,-0.528 0.448,-1.872 0,-1.36 -0.272,-1.936 -0.256,-0.592 -0.88,-0.592 -0.624,0 -0.896,0.384 -0.256,0.368 -0.256,0.704 0,0.336 0.096,0.592 h 0.464 q 0.128,0.336 0.128,0.816 0,0.464 -0.4,0.816 -0.4,0.336 -1.056,0.336 -0.656,0 -1.024,-0.416 -0.352,-0.432 -0.352,-1.072 z" />
    <path
       inkscape:connector-curvature="0"
       id="path893"
       style="font-style:normal;font-variant:normal;font-weight:normal;font-stretch:normal;font-size:16px;line-height:1.39999998;font-family:'Abril Fatface';-inkscape-font-specification:'Abril Fatface';font-variant-ligatures:normal;font-variant-position:normal;font-variant-caps:normal;font-variant-numeric:normal;font-variant-alternates:normal;font-feature-settings:normal;text-indent:0;text-align:center;text-decoration:none;text-decoration-line:none;text-decoration-style:solid;text-decoration-color:#000000;letter-spacing:normal;word-spacing:normal;text-transform:none;writing-mode:lr-tb;direction:ltr;text-orientation:mixed;dominant-baseline:auto;baseline-shift:baseline;text-anchor:middle;white-space:normal;shape-padding:0;fill:#ffffff;fill-opacity:1;fill-rule:nonzero;stroke:#000000;stroke-width:1;stroke-linecap:butt;stroke-linejoin:round;stroke-miterlimit:4;stroke-dasharray:none;stroke-dashoffset:0;stroke-opacity:1;paint-order:stroke markers fill"
       d="m 52.084367,13.608 v -0.304 h 1.504 v -2.56 h -4.336 V 10.44 l 4.512,-8.032 h 2.768 v 7.952 h 1.584 V 8.968 h 0.304 v 2.96 h -0.304 v -1.184 h -1.584 v 2.56 h 1.104 v 0.304 z m -2.32,-3.248 h 3.824 V 3.624 Z" />
    <path
       inkscape:connector-curvature="0"
       id="path890"
       style="font-style:normal;font-variant:normal;font-weight:normal;font-stretch:normal;font-size:16px;line-height:1.39999998;font-family:'Abril Fatface';-inkscape-font-specification:'Abril Fatface';font-variant-ligatures:normal;font-variant-position:normal;font-variant-caps:normal;font-variant-numeric:normal;font-variant-alternates:normal;font-feature-settings:normal;text-indent:0;text-align:center;text-decoration:none;text-decoration-line:none;text-decoration-style:solid;text-decoration-color:#000000;letter-spacing:normal;word-spacing:normal;text-transform:none;writing-mode:lr-tb;direction:ltr;text-orientation:mixed;dominant-baseline:auto;baseline-shift:baseline;text-anchor:middle;white-space:normal;shape-padding:0;fill:#ffffff;fill-opacity:1;fill-rule:nonzero;stroke:#000000;stroke-width:1;stroke-linecap:butt;stroke-linejoin:round;stroke-miterlimit:4;stroke-dasharray:none;stroke-dashoffset:0;stroke-opacity:1;paint-order:stroke markers fill"
       d="m 6.6160188,25.864 q 0,-1.52 -0.272,-2.128 -0.256,-0.608 -1.184,-0.608 -0.928,0 -2.032,0.688 l -0.272,-0.128 v -5.104 l 0.256,-0.192 q 0.976,0.144 2.96,0.352 1.984,0.192 2.288,0.192 0.32,0 0.448,-0.144 0.144,-0.16 0.24,-0.528 l 0.24,0.032 q -0.24,2.448 -0.624,2.912 -0.208,0.24 -0.528,0.24 -0.32,0 -1.344,-0.272 l -3.488,-0.912 -0.08,3.104 q 1.168,-0.624 2.416,-0.624 1.248,0 2.08,0.288 0.832,0.272 1.28,0.768 0.848,0.944 0.848,2.288 0,1.712 -1.232,2.704 -1.216,0.976 -3.36,0.976 -1.152,0 -2.128,-0.48 -0.528,-0.272 -0.864,-0.768 -0.32,-0.512 -0.32,-1.168 0,-0.672 0.368,-1.104 0.384,-0.432 1.04,-0.432 0.672,0 1.04,0.336 0.384,0.32 0.384,0.848 0,0.512 -0.144,0.88 h -0.528 q -0.096,0.256 -0.096,0.608 0,0.336 0.272,0.656 0.272,0.304 0.8,0.304 0.528,0 0.8,-0.16 0.272,-0.176 0.416,-0.416 0.144,-0.24 0.224,-0.752 0.096,-0.736 0.096,-2.256 z" />
    <path
       inkscape:connector-curvature="0"
       id="path887"
       style="font-style:normal;font-variant:normal;font-weight:normal;font-stretch:normal;font-size:16px;line-height:1.39999998;font-family:'Abril Fatface';-inkscape-font-specification:'Abril Fatface';font-variant-ligatures:normal;font-variant-position:normal;font-variant-caps:normal;font-variant-numeric:normal;font-variant-alternates:normal;font-feature-settings:normal;text-indent:0;text-align:center;text-decoration:none;text-decoration-line:none;text-decoration-style:solid;text-decoration-color:#000000;letter-spacing:normal;word-spacing:normal;text-transform:none;writing-mode:lr-tb;direction:ltr;text-orientation:mixed;dominant-baseline:auto;baseline-shift:baseline;text-anchor:middle;white-space:normal;shape-padding:0;fill:#ffffff;fill-opacity:1;fill-rule:nonzero;stroke:#000000;stroke-width:1;stroke-linecap:butt;stroke-linejoin:round;stroke-miterlimit:4;stroke-dasharray:none;stroke-dashoffset:0;stroke-opacity:1;paint-order:stroke markers fill"
       d="m 13.622625,24.68 q 0,-3.088 1.376,-4.768 1.392,-1.68 3.808,-1.68 1.648,0 2.528,0.672 0.88,0.656 0.88,1.728 0,0.608 -0.4,1.056 -0.384,0.432 -1.024,0.432 -0.64,0 -1.024,-0.336 -0.384,-0.352 -0.384,-0.816 0,-0.48 0.128,-0.832 h 0.512 q 0.096,-0.256 0.096,-0.576 0,-1.008 -1.136,-1.008 -1.136,0 -1.664,1.184 -0.528,1.168 -0.544,4.048 0.832,-1.296 2.416,-1.296 1.584,0 2.496,0.864 0.912,0.848 0.912,2.56 0,1.712 -1.2,2.784 -1.2,1.072 -3.216,1.072 -4.56,0 -4.56,-5.088 z m 4.752,-1.664 q -0.544,0 -0.928,0.416 -0.368,0.4 -0.512,0.96 -0.128,0.544 -0.128,1.44 0,0.88 0,1.232 0.016,0.336 0.048,0.816 0.048,0.464 0.128,0.688 0.08,0.208 0.224,0.448 0.256,0.416 0.816,0.416 0.56,0 0.832,-0.208 0.288,-0.224 0.416,-0.736 0.192,-0.752 0.192,-1.872 0,-1.12 -0.016,-1.488 0,-0.368 -0.032,-0.768 -0.032,-0.416 -0.112,-0.624 -0.064,-0.208 -0.176,-0.4 -0.208,-0.32 -0.752,-0.32 z" />
    <path
       inkscape:connector-curvature="0"
       id="path884"
       style="font-style:normal;font-variant:normal;font-weight:normal;font-stretch:normal;font-size:16px;line-height:1.39999998;font-family:'Abril Fatface';-inkscape-font-specification:'Abril Fatface';font-variant-ligatures:normal;font-variant-position:normal;font-variant-caps:normal;font-variant-numeric:normal;font-variant-alternates:normal;font-feature-settings:normal;text-indent:0;text-align:center;text-decoration:none;text-decoration-line:none;text-decoration-style:solid;text-decoration-color:#000000;letter-spacing:normal;word-spacing:normal;text-transform:none;writing-mode:lr-tb;direction:ltr;text-orientation:mixed;dominant-baseline:auto;baseline-shift:baseline;text-anchor:middle;white-space:normal;shape-padding:0;fill:#ffffff;fill-opacity:1;fill-rule:nonzero;stroke:#000000;stroke-width:1;stroke-linecap:butt;stroke-linejoin:round;stroke-miterlimit:4;stroke-dasharray:none;stroke-dashoffset:0;stroke-opacity:1;paint-order:stroke markers fill"
       d="m 29.682367,29.768 q -0.864,0 -1.36,-0.464 -0.496,-0.48 -0.496,-1.168 0,-0.704 0.464,-1.536 0.48,-0.848 2.064,-2.688 l 2.64,-3.056 h -4.096 q -1.136,0 -1.504,0.288 -0.352,0.272 -0.56,1.328 h -0.256 l 0.176,-4.064 h 7.168 v 1.728 l -1.776,3.104 q -1.184,2.096 -1.52,3.008 -0.32,0.896 -0.32,1.712 0,0.816 0.48,1.504 l -0.112,0.192 q -0.448,0.112 -0.992,0.112 z" />
    <path
       inkscape:connector-curvature="0"
       id="path881"
       style="font-style:normal;font-variant:normal;font-weight:normal;font-stretch:normal;font-size:16px;line-height:1.39999998;font-family:'Abril Fatface';-inkscape-font-specification:'Abril Fatface';font-variant-ligatures:normal;font-variant-position:normal;font-variant-caps:normal;font-variant-numeric:normal;font-variant-alternates:normal;font-feature-settings:normal;text-indent:0;text-align:center;text-decoration:none;text-decoration-line:none;text-decoration-style:solid;text-decoration-color:#000000;letter-spacing:normal;word-spacing:normal;text-transform:none;writing-mode:lr-tb;direction:ltr;text-orientation:mixed;dominant-baseline:auto;baseline-shift:baseline;text-anchor:middle;white-space:normal;shape-padding:0;fill:#ffffff;fill-opacity:1;fill-rule:nonzero;stroke:#000000;stroke-width:1;stroke-linecap:butt;stroke-linejoin:round;stroke-miterlimit:4;stroke-dasharray:none;stroke-dashoffset:0;stroke-opacity:1;paint-order:stroke markers fill"
       d="m 41.093894,23.72 q -1.552,-0.08 -2.416,-0.768 -0.864,-0.704 -0.864,-1.808 0,-1.344 1.072,-2.128 1.072,-0.784 3.136,-0.784 2.064,0 3.12,0.736 1.056,0.736 1.056,1.984 0,1.232 -0.816,1.952 -0.816,0.704 -2.352,0.816 v 0.048 q 3.456,0.288 3.456,2.928 0,1.536 -1.088,2.304 -1.072,0.768 -3.36,0.768 -4.528,0 -4.528,-3.056 0,-2.704 3.584,-2.944 z m 2.336,2.976 q 0,-1.488 -0.288,-2.128 -0.288,-0.64 -1.12,-0.64 -0.816,0 -1.104,0.656 -0.288,0.64 -0.288,2.128 0,1.472 0.272,2.096 0.288,0.624 1.136,0.624 0.848,0 1.12,-0.624 0.272,-0.64 0.272,-2.112 z m -1.392,-8.128 q -0.704,0 -0.912,0.576 -0.192,0.56 -0.192,1.536 0,0.96 0.016,1.296 0.016,0.32 0.064,0.672 0.064,0.352 0.192,0.528 0.272,0.384 0.88,0.384 0.544,0 0.816,-0.384 0.208,-0.304 0.224,-0.896 0.016,-0.608 0.016,-1.584 0,-0.992 -0.208,-1.552 -0.192,-0.576 -0.896,-0.576 z" />
    <path
       inkscape:connector-curvature="0"
       id="path878"
       style="font-style:normal;font-variant:normal;font-weight:normal;font-stretch:normal;font-size:16px;line-height:1.39999998;font-family:'Abril Fatface';-inkscape-font-specification:'Abril Fatface';font-variant-ligatures:normal;font-variant-position:normal;font-variant-caps:normal;font-variant-numeric:normal;font-variant-alternates:normal;font-feature-settings:normal;text-indent:0;text-align:center;text-decoration:none;text-decoration-line:none;text-decoration-style:solid;text-decoration-color:#000000;letter-spacing:normal;word-spacing:normal;text-transform:none;writing-mode:lr-tb;direction:ltr;text-orientation:mixed;dominant-baseline:auto;baseline-shift:baseline;text-anchor:middle;white-space:normal;shape-padding:0;fill:#ffffff;fill-opacity:1;fill-rule:nonzero;stroke:#000000;stroke-width:1;stroke-linecap:butt;stroke-linejoin:round;stroke-miterlimit:4;stroke-dasharray:none;stroke-dashoffset:0;stroke-opacity:1;paint-order:stroke markers fill"
       d="m 57.206144,23.37597 -2.928,0.528 2.112,0.56 q 0.256,0.064 0.4,0.128 0.16,0.064 0.304,0.24 0.16,0.16 0.16,0.4 0,0.752 -1.088,1.184 l -2.064,-2.288 0.72,3.008 q -0.528,0.416 -0.96,0.416 -0.432,0 -0.656,-0.176 -0.224,-0.176 -0.224,-0.496 0,-0.32 0.144,-0.752 l 0.688,-2.016 -1.984,2.304 q -0.432,-0.16 -0.768,-0.464 -0.32,-0.304 -0.32,-0.688 0,-0.384 0.24,-0.544 0.256,-0.16 0.752,-0.288 l 1.904,-0.528 -2.848,-0.528 q -0.064,-0.256 -0.064,-0.608 0,-0.368 0.192,-0.688 0.208,-0.336 0.592,-0.336 0.256,0 0.432,0.144 0.176,0.128 0.448,0.384 l 1.456,1.392 -0.704,-2.8 q 0.528,-0.416 0.96,-0.416 0.432,0 0.656,0.176 0.224,0.176 0.224,0.512 0,0.32 -0.208,0.88 l -0.624,1.664 1.424,-1.424 q 0.512,-0.512 0.896,-0.512 0.4,0 0.592,0.304 0.208,0.288 0.208,0.688 0,0.384 -0.064,0.64 z" />
  </g>
</svg>
