<?xml version="1.0" encoding="UTF-8" standalone="no"?>
<!-- Created with Inkscape (http://www.inkscape.org/) -->

<svg
   xmlns:dc="http://purl.org/dc/elements/1.1/"
   xmlns:cc="http://creativecommons.org/ns#"
   xmlns:rdf="http://www.w3.org/1999/02/22-rdf-syntax-ns#"
   xmlns:svg="http://www.w3.org/2000/svg"
   xmlns="http://www.w3.org/2000/svg"
   xmlns:sodipodi="http://sodipodi.sourceforge.net/DTD/sodipodi-0.dtd"
   xmlns:inkscape="http://www.inkscape.org/namespaces/inkscape"
   width="128"
   height="128"
   viewBox="0 0 128 128"
   version="1.1"
   id="svg8"
   inkscape:version="0.92.4 (5da689c313, 2019-01-14)"
   sodipodi:docname="bye.svg">
  <defs
     id="defs2" />
  <sodipodi:namedview
     id="base"
     pagecolor="#ffffff"
     bordercolor="#666666"
     borderopacity="1.0"
     inkscape:pageopacity="0.0"
     inkscape:pageshadow="2"
     inkscape:zoom="3.1864559"
     inkscape:cx="27.609869"
     inkscape:cy="32.695909"
     inkscape:document-units="px"
     inkscape:current-layer="layer1"
     showgrid="false"
     units="px"
     inkscape:pagecheckerboard="true"
     borderlayer="true"
     gridtolerance="10"
     inkscape:snap-smooth-nodes="true"
     inkscape:snap-text-baseline="true"
     inkscape:snap-page="true"
     showguides="true"
     inkscape:guide-bbox="true">
    <inkscape:grid
       type="xygrid"
       id="grid4131"
       empspacing="4" />
  </sodipodi:namedview>
  <metadata
     id="metadata5">
    <rdf:RDF>
      <cc:Work
         rdf:about="">
        <dc:format>image/svg+xml</dc:format>
        <dc:type
           rdf:resource="http://purl.org/dc/dcmitype/StillImage" />
        <dc:title></dc:title>
      </cc:Work>
    </rdf:RDF>
  </metadata>
  <g
     inkscape:label="レイヤー 1"
     inkscape:groupmode="layer"
     id="layer1"
     transform="translate(0,-698.49999)">
    <g
       style="display:inline;opacity:1"
       id="g948"
       transform="matrix(1.2363851,-0.33128838,0.33128838,1.2363851,-364.61576,59.077085)">
      <path
         id="path941"
         d="m 183.54224,567.64314 c 4.60419,0.0643 9.09633,3.51782 8.18704,10.32156 -0.0476,0.35645 -0.0906,0.72248 -0.13743,1.08098 2.60119,-10.82217 18.64197,-6.54651 16.03851,3.13185 -4.05753,15.08386 -6.50924,28.52664 -6.86197,43.18887 l -4.83832,30.08542 c -6.3654,-0.15356 -12.94725,-0.9747 -24.03138,-0.68915 -16.35108,0.42124 -16.75861,-17.84287 -19.14266,-34.80773 -1.37882,-9.81163 -3.84504,-19.47526 -6.63057,-27.14046 -3.71884,-10.2335 8.42219,-15.00677 12.92834,-7.48139 -0.009,-0.0357 -0.017,-0.0707 -0.0267,-0.10617 -3.77836,-13.77398 12.90096,-16.84962 15.73694,-6.47586 -0.0249,-0.35005 -0.0578,-0.74383 -0.0812,-1.08822 -0.4599,-6.7594 4.25528,-10.084 8.85947,-10.01972 z"
         style="opacity:1;vector-effect:none;fill:#6594e5;fill-opacity:1;fill-rule:nonzero;stroke:none;stroke-width:6;stroke-linecap:butt;stroke-linejoin:miter;stroke-miterlimit:4;stroke-dasharray:none;stroke-dashoffset:0;stroke-opacity:1;paint-order:stroke fill markers"
         inkscape:connector-curvature="0" />
      <path
         sodipodi:nodetypes="cssccssccssccssssc"
         inkscape:connector-curvature="0"
         id="path928"
         d="m 198.76897,625.31817 c 0.35273,-14.66224 2.26894,-28.15155 5.76447,-43.21487 1.48595,-6.4034 -9.67138,-9.04094 -10.36978,-2.00716 -1.25073,12.5965 -1.74111,22.67714 -3.10294,33.03258 l -3.98199,-0.79491 c 0.0655,-10.68384 1.01559,-23.94031 2.23379,-35.30536 0.93118,-8.6873 -12.53269,-9.51628 -12.06365,-0.0714 0.5124,10.31784 1.52715,23.98091 0.42232,34.45098 l -3.45759,0.22717 c -1.19649,-9.58809 -1.94517,-19.51147 -1.70714,-29.37811 0.22732,-9.42265 -14.65941,-7.77402 -11.47929,3.01743 2.85036,9.67244 3.26836,19.2634 4.80682,28.34373 l -3.24399,0.77214 c -1.52274,-6.8351 -3.33132,-16.21381 -3.95901,-23.52484 -0.85725,-9.98466 -12.69603,-6.91977 -9.84853,2.01228 2.47715,7.77035 4.59395,17.31439 5.97277,27.12604 2.38406,16.96484 4.56628,33.08477 17.19072,32.75953 11.08412,-0.28555 17.66682,0.53602 24.03223,0.68958"
         style="opacity:1;vector-effect:none;fill:#c8f3ff;fill-opacity:1;fill-rule:nonzero;stroke:none;stroke-width:6;stroke-linecap:butt;stroke-linejoin:miter;stroke-miterlimit:4;stroke-dasharray:none;stroke-dashoffset:0;stroke-opacity:1;paint-order:stroke fill markers" />
      <path
         style="opacity:1;vector-effect:none;fill:#6594e5;fill-opacity:1;fill-rule:nonzero;stroke:none;stroke-width:6;stroke-linecap:butt;stroke-linejoin:miter;stroke-miterlimit:4;stroke-dasharray:none;stroke-dashoffset:0;stroke-opacity:1;paint-order:stroke fill markers"
         d="m 220.65839,604.52308 c -6.61907,-7.84654 -19.84448,-5.85954 -20.29072,17.19026 -11.15581,-6.41861 -26.67021,5.78905 -22.59542,17.13465 3.93142,10.94643 14.64402,16.51963 18.15768,16.6044 16.20637,0.39098 18.02535,-32.53276 24.72846,-50.92931 z"
         id="path930"
         inkscape:connector-curvature="0"
         sodipodi:nodetypes="ccssc" />
      <path
         sodipodi:nodetypes="ccssc"
         inkscape:connector-curvature="0"
         id="path926"
         d="m 217.4545,605.32427 c -7.60945,-7.7606 -14.17872,0.53646 -14.54288,20.18405 -11.15582,-6.4186 -24.87991,2.58434 -25.13937,13.33967 -0.25947,10.75533 7.34084,14.34287 18.20591,14.60498 14.70629,0.35478 14.77323,-29.73214 21.47634,-48.1287 z"
         style="opacity:1;vector-effect:none;fill:#c8f3ff;fill-opacity:1;fill-rule:nonzero;stroke:none;stroke-width:6;stroke-linecap:butt;stroke-linejoin:miter;stroke-miterlimit:4;stroke-dasharray:none;stroke-dashoffset:0;stroke-opacity:1;paint-order:stroke fill markers" />
    </g>
    <path
       style="opacity:1;vector-effect:none;fill:#ffc2ee;fill-opacity:1;fill-rule:nonzero;stroke:none;stroke-width:2;stroke-linecap:round;stroke-linejoin:round;stroke-miterlimit:4;stroke-dasharray:none;stroke-dashoffset:0;stroke-opacity:0.99215686;paint-order:stroke markers fill"
       d="m 10.15305,751.37509 c -5.933063,10.27637 0,37.18865 19.771181,40.95459 C 19.567897,784.64089 9.9961357,768.63565 10.15305,751.37509 Z"
       id="path1402"
       inkscape:connector-curvature="0" />
    <path
       inkscape:connector-curvature="0"
       id="path1404"
       d="M 3.2553132,774.53336 C 0.03557896,782.30288 6.8560509,798.78345 23.101453,797.49503 15.093725,794.33698 6.1487562,785.68357 3.2553132,774.53336 Z"
       style="opacity:1;vector-effect:none;fill:#f63886;fill-opacity:1;fill-rule:nonzero;stroke:none;stroke-width:1.334723;stroke-linecap:round;stroke-linejoin:round;stroke-miterlimit:4;stroke-dasharray:none;stroke-dashoffset:0;stroke-opacity:0.99215686;paint-order:stroke markers fill"
       sodipodi:nodetypes="ccc" />
    <path
       inkscape:connector-curvature="0"
       id="path1406"
       d="m 95.795836,704.37694 c 11.461804,3.07119 26.296354,26.29635 14.978944,42.93961 1.88623,-12.75983 -2.66292,-30.8455 -14.978944,-42.93961 z"
       style="opacity:1;vector-effect:none;fill:#ffc2ee;fill-opacity:1;fill-rule:nonzero;stroke:none;stroke-width:2;stroke-linecap:round;stroke-linejoin:round;stroke-miterlimit:4;stroke-dasharray:none;stroke-dashoffset:0;stroke-opacity:0.99215686;paint-order:stroke markers fill" />
    <path
       sodipodi:nodetypes="ccc"
       style="opacity:1;vector-effect:none;fill:#f63886;fill-opacity:1;fill-rule:nonzero;stroke:none;stroke-width:1.334723;stroke-linecap:round;stroke-linejoin:round;stroke-miterlimit:4;stroke-dasharray:none;stroke-dashoffset:0;stroke-opacity:0.99215686;paint-order:stroke markers fill"
       d="m 111.76745,707.19515 c 8.31609,1.25491 18.90718,15.60611 9.4148,28.85254 1.43074,-8.48823 -1.36047,-20.61683 -9.4148,-28.85254 z"
       id="path1408"
       inkscape:connector-curvature="0" />
  </g>
</svg>
