<?xml version="1.0" encoding="UTF-8" standalone="no"?>
<!-- Created with Inkscape (http://www.inkscape.org/) -->

<svg
   xmlns:dc="http://purl.org/dc/elements/1.1/"
   xmlns:cc="http://creativecommons.org/ns#"
   xmlns:rdf="http://www.w3.org/1999/02/22-rdf-syntax-ns#"
   xmlns:svg="http://www.w3.org/2000/svg"
   xmlns="http://www.w3.org/2000/svg"
   xmlns:sodipodi="http://sodipodi.sourceforge.net/DTD/sodipodi-0.dtd"
   xmlns:inkscape="http://www.inkscape.org/namespaces/inkscape"
   width="420"
   height="160"
   viewBox="0 0 420 160"
   version="1.1"
   id="svg8"
   inkscape:version="0.92.4 (5da689c313, 2019-01-14)"
   sodipodi:docname="haitouch_logo_wide.svg"
   inkscape:export-filename="D:\Documents\PuzzleGame\logo\hand1.png"
   inkscape:export-xdpi="405"
   inkscape:export-ydpi="405">
  <defs
     id="defs2" />
  <sodipodi:namedview
     id="base"
     pagecolor="#ffffff"
     bordercolor="#666666"
     borderopacity="1.0"
     inkscape:pageopacity="0.0"
     inkscape:pageshadow="2"
     inkscape:zoom="1.1508237"
     inkscape:cx="239.72976"
     inkscape:cy="188.3053"
     inkscape:document-units="px"
     inkscape:current-layer="layer1"
     showgrid="false"
     units="px"
     inkscape:pagecheckerboard="true"
     borderlayer="true"
     gridtolerance="10"
     inkscape:snap-smooth-nodes="true"
     inkscape:snap-text-baseline="true"
     inkscape:snap-page="true"
     showguides="true"
     inkscape:guide-bbox="true">
    <inkscape:grid
       type="xygrid"
       id="grid4131"
       empspacing="4" />
  </sodipodi:namedview>
  <metadata
     id="metadata5">
    <rdf:RDF>
      <cc:Work
         rdf:about="">
        <dc:format>image/svg+xml</dc:format>
        <dc:type
           rdf:resource="http://purl.org/dc/dcmitype/StillImage" />
        <dc:title></dc:title>
      </cc:Work>
    </rdf:RDF>
  </metadata>
  <g
     inkscape:label="レイヤー 1"
     inkscape:groupmode="layer"
     id="layer1"
     transform="translate(0,-666.49999)">
    <path
       style="font-style:normal;font-variant:normal;font-weight:900;font-stretch:normal;font-size:51.20000076px;line-height:1.39999998;font-family:Mikado;-inkscape-font-specification:'Mikado Heavy';font-variant-ligatures:normal;font-variant-position:normal;font-variant-caps:normal;font-variant-numeric:normal;font-variant-alternates:normal;font-feature-settings:normal;text-indent:0;text-align:center;text-decoration:none;text-decoration-line:none;text-decoration-style:solid;text-decoration-color:#000000;letter-spacing:0px;word-spacing:0px;text-transform:none;writing-mode:lr-tb;direction:ltr;text-orientation:sideways;dominant-baseline:auto;baseline-shift:baseline;text-anchor:middle;white-space:normal;shape-padding:0;fill:#fffcbc;fill-opacity:1;fill-rule:nonzero;stroke:none;stroke-width:7.67999983;stroke-linecap:butt;stroke-linejoin:miter;stroke-miterlimit:4;stroke-dasharray:none;stroke-dashoffset:0;stroke-opacity:1;paint-order:stroke fill markers"
       d="m 259.47461,706.55468 c -4.2496,0 -5.16992,2.30453 -5.16992,5.42773 0,3.2256 2.09792,4.96485 5.16992,4.96485 3.1744,0 5.37695,-2.04743 5.37695,-4.60743 0,-3.6352 -2.20255,-5.78515 -5.37695,-5.78515 z m -54.81055,0.13281 c -2.8115,-0.0405 -6.53576,0.39198 -6.75976,0.58398 -0.3584,0.3072 -0.10324,37.9389 0.10156,38.2461 0.2048,0.3072 9.57492,0.40988 9.72852,0.20508 0.2048,-0.1536 0.25585,-12.69726 0.25585,-14.13086 0,-1.536 1.02343,-3.32813 3.17383,-3.32813 2.1504,0 2.86719,2.25265 2.86719,3.83985 0,1.6384 -0.20438,13.67103 -0.0508,13.77343 0.1024,0.1024 9.52288,-9.7e-4 9.83008,-0.35937 0.3072,-0.3584 0.76953,-11.059 0.76953,-14.5918 0,-6.656 -3.17435,-11.41797 -10.75195,-11.41797 -3.5328,0 -5.17201,1.27971 -6.34961,2.66211 0.2048,-1.5872 0.51144,-13.36369 0.30664,-14.74609 -0.0768,-0.5184 -1.4342,-0.71203 -3.1211,-0.73633 z m 73.47266,2.52734 c -3.444,-0.0456 -9.24313,0.34714 -10.20313,0.76954 0,9.8304 4.30106,20.27566 4.50586,20.48046 0.2048,0.2048 3.68652,0.5632 4.04493,0 0.3584,-0.5632 3.89132,-8.80617 4.04492,-21.04296 -0.3584,-0.128 -1.24458,-0.19184 -2.39258,-0.20704 z m -39.85742,10.19141 c -7.2192,0 -10.80469,5.12025 -10.80469,5.93945 0,0.7168 4.09584,4.40235 4.55664,4.40235 0.4608,0 2.10016,-1.94532 4.66016,-1.94532 4.4544,0 3.68596,3.37891 3.63476,4.09571 -0.8704,-0.4608 -1.94614,-0.97266 -3.99414,-0.97266 -5.0176,0 -9.0625,2.81666 -9.0625,7.32227 0,4.7104 2.25416,7.78125 7.47656,7.78125 4.3008,0 6.40039,-2.86719 6.40039,-2.86719 l 0.5625,2.20117 c 0,0 7.88547,0.3072 8.03907,0 0.1536,-0.3072 0.4082,-8.96007 0.4082,-14.79687 0,-7.5264 -5.68175,-11.16016 -11.87695,-11.16016 z m 19.30078,0.20898 c -1.7553,0.009 -3.19373,0.0915 -3.32813,0.30274 -0.3584,0.5632 0.0519,25.49679 0.1543,25.65039 0.1024,0.1536 9.21707,0.30762 9.42188,-0.0508 0.2048,-0.3584 0.81808,-25.39481 0.61328,-25.59961 -0.128,-0.128 -3.93583,-0.31724 -6.86133,-0.30274 z m 17.06055,14.2793 c -3.68641,0 -6.2461,2.35656 -6.2461,5.32617 0,4.2496 2.55969,6.70703 6.2461,6.70703 4.96639,0 5.99023,-2.66362 5.99023,-6.29882 0,-3.73761 -2.40624,-5.73438 -5.99023,-5.73438 z m -36.97657,2.09961 c 1.1776,0 2.15039,0.922 2.15039,2.09961 0,1.1776 -0.71679,2.09961 -2.15039,2.09961 -1.1776,0 -2.09961,-0.92201 -2.09961,-2.09961 0,-1.17761 0.81961,-2.09961 2.09961,-2.09961 z"
       id="path830"
       inkscape:connector-curvature="0" />
    <path
       style="font-style:normal;font-variant:normal;font-weight:normal;font-stretch:normal;font-size:51.20000076px;line-height:1.39999998;font-family:Mikado;-inkscape-font-specification:Mikado;font-variant-ligatures:normal;font-variant-position:normal;font-variant-caps:normal;font-variant-numeric:normal;font-variant-alternates:normal;font-feature-settings:normal;text-indent:0;text-align:center;text-decoration:none;text-decoration-line:none;text-decoration-style:solid;text-decoration-color:#000000;letter-spacing:0px;word-spacing:0px;text-transform:none;writing-mode:lr-tb;direction:ltr;text-orientation:sideways;dominant-baseline:auto;baseline-shift:baseline;text-anchor:middle;white-space:normal;shape-padding:0;fill:#ffffff;fill-opacity:1;fill-rule:nonzero;stroke:none;stroke-width:7.67999983;stroke-linecap:butt;stroke-linejoin:miter;stroke-miterlimit:4;stroke-dasharray:none;stroke-dashoffset:0;stroke-opacity:1;paint-order:stroke fill markers"
       d="m 389.73828,706.99608 c -1.0688,0.006 -2.14565,0.14698 -2.24805,0.32618 -0.1536,7.7824 -0.20354,38.09207 -0.15234,38.29687 0.1024,0.3072 4.24916,0.46108 4.35156,0.20508 0.1536,-0.1536 0.20508,-12.38978 0.20508,-14.64258 0,-2.9696 2.56067,-5.99023 6.60547,-5.99023 3.7888,0 5.83594,2.96929 5.83594,6.24609 0,2.2528 8.3e-4,12.59486 -0.10156,14.13086 0.2048,0.1536 4.09444,0.41086 4.24804,-0.15234 0.256,-2.2528 0.51367,-11.00962 0.51367,-14.13282 0,-6.5536 -3.99411,-10.1875 -9.72851,-10.1875 -3.6864,0 -6.50181,2.04827 -7.47461,3.78907 0.1024,-0.6144 0.20354,-16.33301 0.15234,-17.40821 -0.0768,-0.3584 -1.13823,-0.48687 -2.20703,-0.48047 z m -97.11523,7.38477 c -1.116,-0.0312 -3.21886,0.16155 -3.56446,0.46875 -0.4608,0.4608 -0.30733,6.09291 -0.46093,6.19531 -0.1536,0.1024 -4.50614,-0.10393 -4.71094,-0.0527 -0.512,0.1536 -0.25558,3.43038 -0.0508,3.58398 0.256,0.1536 4.71093,0.20466 4.71094,0.25586 0,0.0512 -0.56362,11.16251 -0.66602,13.97852 -0.0512,4.352 2.04727,7.42341 7.01367,7.47461 4.4032,0.1024 6.96484,-2.25196 6.96485,-2.25196 -0.0512,-0.6144 -0.87082,-3.07212 -1.38282,-3.32812 -0.4608,0 -2.15052,1.58635 -4.76172,1.53515 -2.5088,-0.0512 -3.32812,-1.68972 -3.32812,-4.04492 0.1024,-3.73761 0.51172,-12.95382 0.51172,-13.10742 0,-0.2048 8.08886,0.25642 8.44726,-0.0508 0,0 0.41002,-3.02009 -0.0508,-3.42969 -0.512,-0.4096 -8.089,-0.41057 -8.1914,-0.35937 -0.1024,0 0.46107,-6.50182 0.20507,-6.75782 -0.0512,-0.064 -0.31354,-0.099 -0.68554,-0.10937 z m 43.63476,6.45117 c -0.7227,0.0174 -1.30568,0.11564 -1.36328,0.36524 -0.2048,2.3552 -0.76953,11.41739 -0.76953,15.30859 0,6.14401 2.76518,9.98437 9.26758,9.98437 3.2256,0 6.45158,-1.79268 7.83398,-3.73828 -0.0512,0.3072 -0.0523,2.101 -0.10351,3.125 0.3584,0.4608 3.84123,0.66477 4.14843,0.10157 0.3072,-10.49601 0.66602,-24.3206 0.66602,-24.5254 -0.2048,-0.25599 -4.14718,-0.35756 -4.30078,-0.10156 -0.1536,0.2048 -0.46247,12.9022 -0.51367,14.5918 -0.1024,3.63521 -2.66182,6.50195 -6.75782,6.50195 -3.7888,-0.0512 -5.73437,-2.30452 -5.73437,-6.14453 0,-2.7648 0.61523,-13.72028 0.61523,-15.20508 -0.192,-0.096 -1.78378,-0.29267 -2.98828,-0.26367 z m 37.27344,0.16016 c -7.7824,0 -11.82813,6.34972 -11.82813,12.54492 0,6.19521 3.27843,12.5957 11.98243,12.5957 3.6864,0 6.65429,-1.6388 8.08789,-3.5332 -0.6656,-1.4336 -1.73968,-3.02121 -2.04688,-2.81641 -0.7168,0.512 -2.91865,2.25196 -5.93945,2.25196 -2.6112,0 -7.52539,-1.38096 -7.52539,-8.29297 0,-5.5296 3.22459,-8.5 7.52539,-8.5 3.5328,0 5.99037,2.30469 6.45117,2.30469 0.6144,-0.0512 1.74149,-3.07157 1.58789,-3.63477 -0.1536,-0.512 -3.17492,-2.91992 -8.29492,-2.91992 z m -56.85156,0.0527 c -7.5776,0 -11.77539,6.09191 -11.77539,12.28711 0,8.03841 5.0181,12.74805 11.8789,12.74805 7.68,-0.1536 11.77539,-5.47862 11.77539,-12.39063 0,-8.3456 -5.0693,-12.64453 -11.8789,-12.64453 z m 0.10351,4.45313 c 3.8912,0.0512 7.32032,1.84344 7.32032,8.08984 0,5.32481 -2.50821,8.3969 -7.47461,8.3457 -3.8912,0 -7.26953,-2.66207 -7.26953,-8.39648 0,-4.5568 2.35502,-8.09026 7.42382,-8.03906 z"
       id="path838"
       inkscape:connector-curvature="0" />
    <path
       style="font-style:normal;font-variant:normal;font-weight:normal;font-stretch:normal;font-size:35.84000015px;line-height:1.39999998;font-family:'Tobi Greek Cyrillic';-inkscape-font-specification:'Tobi Greek Cyrillic';font-variant-ligatures:normal;font-variant-position:normal;font-variant-caps:normal;font-variant-numeric:normal;font-variant-alternates:normal;font-feature-settings:normal;text-indent:0;text-align:center;text-decoration:none;text-decoration-line:none;text-decoration-style:solid;text-decoration-color:#000000;letter-spacing:0px;word-spacing:0px;text-transform:none;writing-mode:lr-tb;direction:ltr;text-orientation:sideways;dominant-baseline:auto;baseline-shift:baseline;text-anchor:middle;white-space:normal;shape-padding:0;fill:#ffffff;fill-opacity:0.77777782;fill-rule:nonzero;stroke:none;stroke-width:8.77714252;stroke-linecap:butt;stroke-linejoin:miter;stroke-miterlimit:4;stroke-dasharray:none;stroke-dashoffset:0;stroke-opacity:1;paint-order:stroke fill markers"
       d="m 247.44531,756.76561 c -2.54464,-0.0358 -4.62411,0.53857 -6.30859,1.79297 -1.68448,1.21856 -2.50977,3.08173 -2.50977,5.55469 0,2.79552 1.43485,4.98164 4.33789,6.5586 0.5376,0.28671 1.39736,0.68183 2.58008,1.18359 1.21856,0.46592 2.18555,0.93193 2.90235,1.32617 0.82432,0.46592 1.18369,1.03779 1.07617,1.71875 -0.0358,0.82432 -0.75263,1.21885 -2.15039,1.11133 -1.11104,-0.0717 -2.11572,-0.46553 -3.01172,-1.14649 -0.896,-0.68096 -1.57647,-1.32626 -1.9707,-1.93554 l -4.51563,3.4414 c 0.75264,1.75616 2.04325,3.11689 3.87109,4.15625 1.82784,1.00352 3.83466,1.50518 5.94922,1.54102 2.36544,0 4.26562,-0.50166 5.69922,-1.54102 1.93536,-1.39776 2.90235,-3.47596 2.90235,-6.27148 0,-2.00704 -0.78896,-3.65634 -2.33008,-4.98242 -0.64512,-0.57344 -1.7915,-1.18232 -3.4043,-1.86328 -0.46592,-0.14336 -2.50957,-0.93125 -3.44141,-1.36133 -1.18272,-0.57344 -1.71884,-1.18301 -1.61132,-1.82813 0.10752,-0.96768 0.82362,-1.43427 2.18554,-1.39843 0.86016,0.0358 1.75693,0.39462 2.72461,1.0039 0.96768,0.60928 1.64736,1.32744 2.11328,2.08008 l 4.15821,-4.23047 c -2.1504,-3.15392 -5.23202,-4.80263 -9.2461,-4.91016 z m 57.53321,0 c -2.04288,-0.0358 -4.15751,0.28721 -6.34375,0.89649 l 0.10742,23.68945 c 4.04992,0.32256 7.38426,2e-4 10.07226,-0.93164 5.05344,-1.75616 8.31514,-6.16335 8.2793,-12.65039 -0.1792,-7.27552 -4.23043,-10.96806 -12.11523,-11.00391 z m 34.93945,0 c -3.584,-0.0358 -6.34394,1.11181 -8.2793,3.44141 -1.93536,2.3296 -2.9043,5.30458 -2.90429,8.99609 0,3.83488 0.93192,6.91708 2.75976,9.31836 1.86368,2.36544 4.66063,3.51182 8.42383,3.4043 3.44064,-0.10752 6.05565,-1.29022 7.84765,-3.58398 1.79201,-2.29376 2.72393,-5.19598 2.75977,-8.74414 0.10752,-6.91712 -3.04518,-12.72451 -10.60742,-12.83204 z m 21.69726,0 c -2.54464,-0.0358 -4.62411,0.53857 -6.30859,1.79297 -1.68448,1.21856 -2.50977,3.08173 -2.50976,5.55469 0,2.79552 1.43485,4.98164 4.33789,6.5586 0.5376,0.28671 1.39735,0.68183 2.58007,1.18359 1.21856,0.46592 2.18555,0.93193 2.90235,1.32617 0.82432,0.46592 1.18369,1.03779 1.07617,1.71875 -0.0358,0.82432 -0.75263,1.21885 -2.15039,1.11133 -1.11104,-0.0717 -2.11377,-0.46553 -3.00977,-1.14649 -0.896,-0.68096 -1.57841,-1.32626 -1.97265,-1.93554 l -4.51563,3.4414 c 0.75264,1.75616 2.04326,3.11689 3.8711,4.15625 1.82784,1.00352 3.83465,1.50518 5.94921,1.54102 2.36544,0 4.26562,-0.50166 5.69922,-1.54102 1.93536,-1.39776 2.90235,-3.47596 2.90235,-6.27148 0,-2.00704 -0.78896,-3.65634 -2.33008,-4.98242 -0.64512,-0.57344 -1.7915,-1.18232 -3.4043,-1.86328 -0.46592,-0.14336 -2.50956,-0.93125 -3.4414,-1.36133 -1.18272,-0.57344 -1.71885,-1.18301 -1.61133,-1.82813 0.10752,-0.96768 0.82362,-1.43427 2.18554,-1.39843 0.86016,0.0358 1.75693,0.39462 2.72461,1.0039 0.96768,0.60928 1.64736,1.32744 2.11328,2.08008 l 4.15821,-4.23047 c -2.1504,-3.15392 -5.23202,-4.80263 -9.2461,-4.91016 z m -86.17187,0.32227 -17.66992,0.32422 -0.0352,7.0957 5.37695,-0.32226 0.0703,17.27539 h 6.23633 l 0.35937,-17.63477 5.66211,-0.32226 z m 10.0957,0 -7.41992,0.2168 c -0.82432,5.26848 -1.25459,9.38914 -1.21875,12.43554 0.0358,8.17152 3.22536,12.25782 9.5332,12.25782 6.48704,0 9.8208,-4.58737 10,-13.72657 0.0358,-2.25792 -0.0356,-4.44462 -0.21484,-6.63086 -0.1792,-2.18623 -0.35791,-3.6913 -0.53711,-4.51562 l -7.16797,0.17969 c 0.46592,4.19328 0.75127,7.74012 0.78711,10.71484 0.0358,2.1504 -0.0348,3.62109 -0.35742,5.05469 -0.28672,1.4336 -1.03867,2.18555 -2.18555,2.18555 -1.75616,0 -2.61728,-2.00809 -2.50976,-5.98633 0.0358,-2.11456 0.17939,-4.4788 0.50195,-7.02344 0.32256,-2.54464 0.57402,-4.26611 0.78906,-5.16211 z m 40.80664,0.0371 -6.8457,0.60938 -0.0352,23.72656 h 6.84571 z m 13.42774,6.0918 c 3.33312,0.10752 3.97851,3.51317 3.97851,6.20117 0.0717,2.79552 -0.93133,5.91396 -4.12109,6.02148 -1.9712,0 -3.26133,-1.72108 -3.69141,-3.4414 -0.21504,-0.896 -0.32295,-1.79209 -0.28711,-2.75977 0.0358,-2.04288 0.32305,-3.72734 1.61328,-5.01758 0.64512,-0.68096 1.46846,-1.0039 2.50782,-1.0039 z m -33.79688,0.0937 c 1.03488,-0.002 1.9675,0.3558 2.80078,1.05468 1.11104,0.896 1.68555,2.25752 1.68555,4.01368 -0.0358,1.72032 -0.57324,3.22538 -1.64844,4.51562 -1.0752,1.2544 -2.36649,1.96992 -3.83593,2.11328 l -0.0723,-11.57617 c 0.36736,-0.0806 0.72535,-0.12053 1.07031,-0.12109 z"
       id="path849"
       inkscape:connector-curvature="0" />
    <g
       style="display:inline;opacity:1"
       id="g948"
       transform="matrix(1.2363851,-0.33128838,0.33128838,1.2363851,-363.86329,37.331856)">
      <path
         id="path941"
         d="m 183.54224,567.64314 c 4.60419,0.0643 9.09633,3.51782 8.18704,10.32156 -0.0476,0.35645 -0.0906,0.72248 -0.13743,1.08098 2.60119,-10.82217 18.64197,-6.54651 16.03851,3.13185 -4.05753,15.08386 -6.50924,28.52664 -6.86197,43.18887 l -4.83832,30.08542 c -6.3654,-0.15356 -12.94725,-0.9747 -24.03138,-0.68915 -16.35108,0.42124 -16.75861,-17.84287 -19.14266,-34.80773 -1.37882,-9.81163 -3.84504,-19.47526 -6.63057,-27.14046 -3.71884,-10.2335 8.42219,-15.00677 12.92834,-7.48139 -0.009,-0.0357 -0.017,-0.0707 -0.0267,-0.10617 -3.77836,-13.77398 12.90096,-16.84962 15.73694,-6.47586 -0.0249,-0.35005 -0.0578,-0.74383 -0.0812,-1.08822 -0.4599,-6.7594 4.25528,-10.084 8.85947,-10.01972 z"
         style="opacity:1;vector-effect:none;fill:#6594e5;fill-opacity:1;fill-rule:nonzero;stroke:none;stroke-width:6;stroke-linecap:butt;stroke-linejoin:miter;stroke-miterlimit:4;stroke-dasharray:none;stroke-dashoffset:0;stroke-opacity:1;paint-order:stroke fill markers"
         inkscape:connector-curvature="0" />
      <path
         sodipodi:nodetypes="cssccssccssccssssc"
         inkscape:connector-curvature="0"
         id="path928"
         d="m 198.76897,625.31817 c 0.35273,-14.66224 2.26894,-28.15155 5.76447,-43.21487 1.48595,-6.4034 -9.67138,-9.04094 -10.36978,-2.00716 -1.25073,12.5965 -1.74111,22.67714 -3.10294,33.03258 l -3.98199,-0.79491 c 0.0655,-10.68384 1.01559,-23.94031 2.23379,-35.30536 0.93118,-8.6873 -12.53269,-9.51628 -12.06365,-0.0714 0.5124,10.31784 1.52715,23.98091 0.42232,34.45098 l -3.45759,0.22717 c -1.19649,-9.58809 -1.94517,-19.51147 -1.70714,-29.37811 0.22732,-9.42265 -14.65941,-7.77402 -11.47929,3.01743 2.85036,9.67244 3.26836,19.2634 4.80682,28.34373 l -3.24399,0.77214 c -1.52274,-6.8351 -3.33132,-16.21381 -3.95901,-23.52484 -0.85725,-9.98466 -12.69603,-6.91977 -9.84853,2.01228 2.47715,7.77035 4.59395,17.31439 5.97277,27.12604 2.38406,16.96484 4.56628,33.08477 17.19072,32.75953 11.08412,-0.28555 17.66682,0.53602 24.03223,0.68958"
         style="opacity:1;vector-effect:none;fill:#c8f3ff;fill-opacity:1;fill-rule:nonzero;stroke:none;stroke-width:6;stroke-linecap:butt;stroke-linejoin:miter;stroke-miterlimit:4;stroke-dasharray:none;stroke-dashoffset:0;stroke-opacity:1;paint-order:stroke fill markers" />
      <path
         style="opacity:1;vector-effect:none;fill:#6594e5;fill-opacity:1;fill-rule:nonzero;stroke:none;stroke-width:6;stroke-linecap:butt;stroke-linejoin:miter;stroke-miterlimit:4;stroke-dasharray:none;stroke-dashoffset:0;stroke-opacity:1;paint-order:stroke fill markers"
         d="m 220.65839,604.52308 c -6.61907,-7.84654 -19.84448,-5.85954 -20.29072,17.19026 -11.15581,-6.41861 -26.67021,5.78905 -22.59542,17.13465 3.93142,10.94643 14.64402,16.51963 18.15768,16.6044 16.20637,0.39098 18.02535,-32.53276 24.72846,-50.92931 z"
         id="path930"
         inkscape:connector-curvature="0"
         sodipodi:nodetypes="ccssc" />
      <path
         sodipodi:nodetypes="ccssc"
         inkscape:connector-curvature="0"
         id="path926"
         d="m 217.4545,605.32427 c -7.60945,-7.7606 -14.17872,0.53646 -14.54288,20.18405 -11.15582,-6.4186 -24.87991,2.58434 -25.13937,13.33967 -0.25947,10.75533 7.34084,14.34287 18.20591,14.60498 14.70629,0.35478 14.77323,-29.73214 21.47634,-48.1287 z"
         style="opacity:1;vector-effect:none;fill:#c8f3ff;fill-opacity:1;fill-rule:nonzero;stroke:none;stroke-width:6;stroke-linecap:butt;stroke-linejoin:miter;stroke-miterlimit:4;stroke-dasharray:none;stroke-dashoffset:0;stroke-opacity:1;paint-order:stroke fill markers" />
    </g>
    <g
       style="display:inline;opacity:1"
       transform="matrix(1.2363851,0.33128838,-0.33128838,1.2363851,101.14384,-61.90431)"
       id="g958">
      <path
         style="opacity:1;vector-effect:none;fill:#f63886;fill-opacity:1;fill-rule:nonzero;stroke:none;stroke-width:6;stroke-linecap:butt;stroke-linejoin:miter;stroke-miterlimit:4;stroke-dasharray:none;stroke-dashoffset:0;stroke-opacity:1;paint-order:stroke fill markers"
         d="m 190.61328,106.70898 c -4.6044,-0.0468 -9.17852,3.29742 -8.43359,10.1211 0.039,0.3575 0.0732,0.72446 0.11133,1.08398 -2.33944,-10.88175 -18.47867,-6.99419 -16.10938,2.74414 2.45364,10.08506 4.1955,19.43153 5.10156,28.86914 -3.39223,-12.73509 -13.13117,-13.09055 -18.66406,-6.84375 6.25748,18.55286 7.2811,51.50977 23.49219,51.50977 6.36726,0 12.96699,-0.66217 24.04101,-0.10938 16.33617,0.81547 17.18406,-17.43351 19.97657,-34.33593 1.61505,-9.77553 4.31361,-19.37686 7.2832,-26.97266 3.96457,-10.14083 -8.05781,-15.20553 -12.74414,-7.79101 0.0105,-0.0353 0.0187,-0.0702 0.0293,-0.10547 4.10946,-13.67885 -12.49084,-17.15586 -15.57618,-6.85352 0.0333,-0.34934 0.0757,-0.74221 0.10743,-1.08594 0.62279,-6.74634 -4.01084,-10.18369 -8.61524,-10.23047 z"
         transform="translate(-2,462.49999)"
         id="path954"
         inkscape:connector-curvature="0" />
      <path
         style="opacity:1;vector-effect:none;fill:#ffc2ee;fill-opacity:1;fill-rule:nonzero;stroke:none;stroke-width:6;stroke-linecap:butt;stroke-linejoin:miter;stroke-miterlimit:4;stroke-dasharray:none;stroke-dashoffset:0;stroke-opacity:1;paint-order:stroke fill markers"
         d="m 190.64062,109.25977 c -3.19272,0.0356 -6.38217,2.33974 -6.02148,6.69335 0.94375,11.39113 1.57303,24.66535 1.38086,35.34766 L 182,152 c -1.11169,-10.38527 -1.35812,-20.47467 -2.30469,-33.09766 -0.52856,-7.04858 -11.74709,-4.68152 -10.41601,1.75586 3.02562,14.63255 4.59848,27.77018 4.70117,41.8711 -1.38904,0.31643 -2.77389,0.8249 -4.12695,1.56054 0.10979,-19.65066 -6.25639,-28.10412 -14.05079,-20.52929 6.25748,18.55286 5.59804,48.63281 20.3086,48.63281 6.36726,0 12.96699,-0.66217 24.04101,-0.10938 12.61292,0.62961 15.18406,-15.43351 17.97657,-32.33593 1.61505,-9.77553 3.96117,-19.26431 6.625,-26.97266 3.06208,-8.86077 -8.69908,-12.21108 -9.79688,-2.25 -0.80384,7.29377 -2.83824,16.62549 -4.52539,23.42188 l -3.22461,-0.84961 c 1.75701,-9.04059 2.40743,-18.61787 5.49024,-28.21875 3.43946,-10.71162 -11.4043,-12.72032 -11.4043,-3.29493 0,9.86951 -0.98667,19.77363 -2.41406,29.33008 l -3.45118,-0.31054 c -0.852,-10.49366 0.49088,-24.12917 1.25196,-34.43164 0.34834,-4.71542 -2.84634,-6.94767 -6.03907,-6.91211 z"
         transform="translate(-2,462.49999)"
         id="path956"
         inkscape:connector-curvature="0" />
    </g>
  </g>
  <g
     inkscape:groupmode="layer"
     id="layer2"
     inkscape:label="レイヤー 2"
     sodipodi:insensitive="true"
     style="display:none"
     transform="translate(0,-96)">
    <path
       style="opacity:1;vector-effect:none;fill:#000000;fill-opacity:1;fill-rule:nonzero;stroke:none;stroke-width:2;stroke-linecap:butt;stroke-linejoin:miter;stroke-miterlimit:4;stroke-dasharray:none;stroke-dashoffset:0;stroke-opacity:1;paint-order:stroke fill markers"
       d="M 128,-128 A 256,256 0 0 0 -128,128 256,256 0 0 0 128,384 256,256 0 0 0 384,128 256,256 0 0 0 128,-128 Z M 128,0 A 128,128 0 0 1 256,128 128,128 0 0 1 128,256 128,128 0 0 1 0,128 128,128 0 0 1 128,0 Z"
       id="circle5813"
       inkscape:connector-curvature="0" />
  </g>
</svg>
